<svg width="187.929" height="45.424" viewBox="0 0 187.929 45.424" xmlns="http://www.w3.org/2000/svg"><g id="svgGroup" stroke-linecap="round" fill-rule="evenodd" font-size="9pt" stroke="#000" stroke-width="0.025mm" fill="none" style="stroke:#000;stroke-width:0.025mm;fill:none"><path d="M 32.004 45.045 L 0 45.045 L 0 0.315 L 10.332 0.315 L 10.332 35.973 L 32.004 35.973 L 32.004 45.045 Z" id="0"/><path d="M 50.947 44.781 A 22.77 22.77 0 0 0 56.448 45.423 A 24.498 24.498 0 0 0 57.797 45.387 A 20.769 20.769 0 0 0 65.362 43.565 Q 69.426 41.706 72.45 38.525 Q 75.474 35.343 77.112 31.311 Q 78.75 27.279 78.75 22.806 Q 78.75 18.585 77.175 14.522 Q 75.6 10.458 72.67 7.182 Q 69.741 3.906 65.678 1.985 A 19.288 19.288 0 0 0 62.364 0.777 A 22.285 22.285 0 0 0 56.637 0.063 A 25.018 25.018 0 0 0 55.399 0.094 A 21.337 21.337 0 0 0 47.691 1.89 Q 43.596 3.717 40.604 6.899 Q 37.611 10.08 35.942 14.112 Q 34.272 18.144 34.272 22.617 Q 34.272 26.964 35.847 31.028 Q 37.422 35.091 40.351 38.336 Q 43.281 41.58 47.345 43.502 A 19.254 19.254 0 0 0 50.947 44.781 Z M 44.793 22.743 Q 44.793 25.326 45.549 27.752 A 13.482 13.482 0 0 0 47.514 31.708 A 12.789 12.789 0 0 0 47.786 32.067 Q 49.266 33.957 51.471 35.091 A 10.215 10.215 0 0 0 54.883 36.126 A 12.901 12.901 0 0 0 56.511 36.225 A 12.708 12.708 0 0 0 59.121 35.969 A 9.694 9.694 0 0 0 61.677 35.06 Q 63.882 33.894 65.331 31.941 Q 66.78 29.988 67.505 27.563 Q 68.229 25.137 68.229 22.617 Q 68.229 20.034 67.473 17.64 Q 66.717 15.246 65.205 13.325 Q 63.693 11.403 61.488 10.332 A 10.657 10.657 0 0 0 58.025 9.346 A 13.217 13.217 0 0 0 56.511 9.261 A 13.018 13.018 0 0 0 53.989 9.494 A 9.657 9.657 0 0 0 51.376 10.395 Q 49.203 11.529 47.723 13.451 Q 46.242 15.372 45.518 17.798 Q 44.793 20.223 44.793 22.743 Z" id="1"/><path d="M 122.409 9.765 L 114.723 15.561 Q 113.211 12.6 110.345 10.899 Q 107.478 9.198 104.139 9.198 A 10.649 10.649 0 0 0 100.728 9.735 A 9.855 9.855 0 0 0 99.508 10.238 Q 97.398 11.277 95.854 13.136 A 13.079 13.079 0 0 0 93.652 16.995 A 15.03 15.03 0 0 0 93.492 17.451 Q 92.673 19.908 92.673 22.743 A 16.692 16.692 0 0 0 93.035 26.276 A 14.37 14.37 0 0 0 93.555 28.098 Q 94.437 30.555 96.012 32.351 Q 97.587 34.146 99.761 35.154 A 10.955 10.955 0 0 0 103.525 36.121 A 13.184 13.184 0 0 0 104.58 36.162 Q 107.793 36.162 110.723 34.556 Q 113.652 32.949 116.109 29.799 L 116.109 40.005 A 18.847 18.847 0 0 1 110.811 43.804 A 16.506 16.506 0 0 1 103.698 45.36 Q 99.288 45.36 95.382 43.691 Q 91.476 42.021 88.515 38.966 A 21.876 21.876 0 0 1 84.017 32.047 A 24.934 24.934 0 0 1 83.884 31.721 A 23.435 23.435 0 0 1 82.395 25.651 A 29.235 29.235 0 0 1 82.215 22.365 A 22.514 22.514 0 0 1 83.338 15.206 A 21.082 21.082 0 0 1 83.916 13.671 Q 85.617 9.639 88.641 6.552 Q 91.665 3.465 95.729 1.733 A 21.931 21.931 0 0 1 103.637 0.016 A 25.282 25.282 0 0 1 104.517 0 A 24.467 24.467 0 0 1 110.499 0.704 A 19.988 19.988 0 0 1 115.416 2.646 Q 120.141 5.292 122.409 9.765 Z M 115.479 45.045 L 115.479 29.169 L 106.785 29.169 L 106.785 21.672 L 124.047 21.672 L 124.047 45.045 L 115.479 45.045 Z" id="2"/><path d="M 141.183 45.045 L 130.851 45.045 L 130.851 0.315 L 141.183 0.315 L 141.183 45.045 Z" id="3"/><path d="M 187.425 9.828 L 179.487 15.372 A 11.035 11.035 0 0 0 178.478 13.483 A 8.037 8.037 0 0 0 176.81 11.655 Q 175.14 10.332 173.156 9.797 A 15.647 15.647 0 0 0 170.736 9.337 A 13.146 13.146 0 0 0 169.344 9.261 A 12.708 12.708 0 0 0 166.734 9.518 A 9.694 9.694 0 0 0 164.178 10.427 Q 161.973 11.592 160.524 13.545 Q 159.075 15.498 158.382 17.892 Q 157.689 20.286 157.689 22.68 Q 157.689 25.326 158.508 27.783 A 13.739 13.739 0 0 0 160.496 31.649 A 12.941 12.941 0 0 0 160.87 32.13 Q 162.414 34.02 164.619 35.123 A 10.566 10.566 0 0 0 168.978 36.216 A 12.414 12.414 0 0 0 169.47 36.225 A 12.208 12.208 0 0 0 172.674 35.785 A 14.092 14.092 0 0 0 173.313 35.595 Q 175.266 34.965 176.936 33.611 Q 178.605 32.256 179.487 30.051 L 187.929 35.028 Q 186.606 38.304 183.582 40.635 Q 180.558 42.966 176.747 44.195 Q 172.935 45.423 169.218 45.423 A 20.659 20.659 0 0 1 162.652 44.398 A 19.069 19.069 0 0 1 160.303 43.439 Q 156.24 41.454 153.311 38.147 Q 150.381 34.839 148.775 30.713 Q 147.168 26.586 147.168 22.302 Q 147.168 18.207 148.68 14.27 Q 150.192 10.332 153.09 7.119 A 21.471 21.471 0 0 1 159.887 2.106 A 24.521 24.521 0 0 1 160.146 1.985 A 20.728 20.728 0 0 1 166.245 0.27 A 26.351 26.351 0 0 1 169.596 0.063 A 24.656 24.656 0 0 1 175.135 0.659 A 19.077 19.077 0 0 1 180.526 2.772 A 18.783 18.783 0 0 1 185.04 6.395 A 16.53 16.53 0 0 1 187.425 9.828 Z" id="4"/></g></svg>