<svg width="177.786" height="45.612" viewBox="0 0 177.786 45.612" xmlns="http://www.w3.org/2000/svg"><g id="svgGroup" stroke-linecap="round" fill-rule="evenodd" font-size="9pt" stroke="#000" stroke-width="0.025mm" fill="none" style="stroke:#000;stroke-width:0.025mm;fill:none"><path d="M 34.524 4.914 L 29.988 13.482 A 0.823 0.823 0 0 0 29.86 13.328 Q 29.551 13.022 28.665 12.506 A 21.086 21.086 0 0 0 27.735 11.996 Q 26.893 11.561 25.83 11.088 A 25.685 25.685 0 0 0 23.581 10.217 A 30.68 30.68 0 0 0 22.113 9.765 Q 20.097 9.198 18.081 9.198 A 12.36 12.36 0 0 0 16.544 9.287 Q 14.982 9.484 13.986 10.112 A 2.956 2.956 0 0 0 12.588 12.241 A 4.289 4.289 0 0 0 12.537 12.915 A 3.333 3.333 0 0 0 12.715 14.03 A 2.817 2.817 0 0 0 13.639 15.309 Q 14.426 15.938 15.709 16.455 A 15.804 15.804 0 0 0 16.821 16.853 Q 18.25 17.307 20.126 17.866 A 323.285 323.285 0 0 0 21.924 18.396 A 44.966 44.966 0 0 1 25.691 19.563 Q 27.435 20.193 28.935 20.925 A 27.319 27.319 0 0 1 29.358 21.137 A 14.242 14.242 0 0 1 31.986 22.843 A 11.097 11.097 0 0 1 34.177 25.263 A 9.254 9.254 0 0 1 35.376 27.986 Q 35.847 29.732 35.847 31.941 A 17.158 17.158 0 0 1 35.618 34.82 Q 35.341 36.446 34.729 37.79 A 10.104 10.104 0 0 1 34.461 38.336 Q 33.075 40.95 30.713 42.557 A 15.833 15.833 0 0 1 26.3 44.626 A 18.481 18.481 0 0 1 25.326 44.888 Q 22.302 45.612 19.089 45.612 A 35.091 35.091 0 0 1 13.022 45.069 A 39.018 39.018 0 0 1 12.38 44.951 Q 8.946 44.289 5.796 43.061 A 30.423 30.423 0 0 1 0.501 40.394 A 28.049 28.049 0 0 1 0 40.068 L 4.536 31.059 Q 4.739 31.313 5.678 31.914 A 30.634 30.634 0 0 0 6.174 32.225 Q 7.56 33.075 9.608 33.989 Q 11.655 34.902 14.175 35.595 Q 16.695 36.288 19.278 36.288 A 13.967 13.967 0 0 0 20.725 36.218 Q 22.431 36.04 23.405 35.406 Q 24.706 34.558 24.757 33.071 A 3.571 3.571 0 0 0 24.759 32.949 A 3.245 3.245 0 0 0 24.509 31.654 Q 24.164 30.851 23.342 30.303 Q 22.312 29.617 20.75 29.03 A 23.146 23.146 0 0 0 19.499 28.602 A 442.468 442.468 0 0 0 17.238 27.904 Q 16.081 27.551 14.795 27.163 A 758.861 758.861 0 0 0 13.923 26.901 A 43.172 43.172 0 0 1 11.051 25.912 Q 9.659 25.373 8.483 24.787 A 21.968 21.968 0 0 1 7.151 24.066 A 12.485 12.485 0 0 1 5.009 22.496 A 9.444 9.444 0 0 1 3.182 20.223 A 9.297 9.297 0 0 1 2.213 17.672 Q 1.953 16.531 1.902 15.207 A 17.071 17.071 0 0 1 1.89 14.553 A 16.58 16.58 0 0 1 2.288 10.83 A 12.237 12.237 0 0 1 4.127 6.584 Q 6.363 3.339 10.143 1.67 Q 13.923 0 18.396 0 Q 21.546 0 24.476 0.756 A 35.883 35.883 0 0 1 28.904 2.201 A 31.927 31.927 0 0 1 29.957 2.646 Q 32.508 3.78 34.524 4.914 Z" id="0"/><path d="M 70.056 0.378 L 80.388 0.378 L 80.388 45.108 L 70.056 45.108 L 70.056 26.775 L 52.227 26.775 L 52.227 45.108 L 41.895 45.108 L 41.895 0.378 L 52.227 0.378 L 52.227 17.703 L 70.056 17.703 L 70.056 0.378 Z" id="1"/><path d="M 99.288 45.108 L 88.956 45.108 L 88.956 0.378 L 99.288 0.378 L 99.288 45.108 Z" id="2"/><path d="M 118.188 45.108 L 107.856 45.108 L 107.856 0.378 L 138.222 0.378 L 138.222 9.45 L 118.188 9.45 L 118.188 19.089 L 134.694 19.089 L 134.694 27.468 L 118.188 27.468 L 118.188 45.108 Z" id="3"/><path d="M 177.786 0.378 L 177.786 9.45 L 164.178 9.45 L 164.178 45.108 L 153.846 45.108 L 153.846 9.45 L 140.175 9.45 L 140.175 0.378 L 177.786 0.378 Z" id="4"/></g></svg>